<svg xmlns="http://www.w3.org/2000/svg" width="600" height="600" viewBox="0 0 600 600">
  <defs>
    <style>
      .cls-1 {
        fill: #3178c6;
      }

      .cls-2 {
        fill: #fff;
        fill-rule: evenodd;
      }
    </style>
  </defs>
  <rect class="cls-1" width="600" height="600" rx="53" ry="53"/>
  <path class="cls-2" d="M138,285H348v48H273V547H213V334l-75-1V285Z"/>
  <path class="cls-2" d="M540,345l-1-56s-27.5-11.5-67-11c-69.745.883-101.25,33-102,77s18.25,59.75,65,80,53,29.75,53,41-4.25,26.75-44,27-73-26-73-26v59s29,17.25,78,16c86.25-1.75,101.5-46,102-74s-4.5-62.25-61-84-57-34-57-43,9.25-25,45-25S540,345,540,345Z"/>
</svg>
